<mxfile host="app.diagrams.net" modified="2024-02-15T03:47:43.774Z" agent="Mozilla/5.0 (Macintosh; Intel Mac OS X 10.15; rv:122.0) Gecko/20100101 Firefox/122.0" etag="iDWKZQyukeSQpILhr2Wy" version="23.1.4" type="github">
  <diagram name="Page-1" id="UIrHtgEIKB4DSZFqccTW">
    <mxGraphModel dx="1804" dy="617" grid="1" gridSize="10" guides="1" tooltips="1" connect="1" arrows="1" fold="1" page="1" pageScale="1" pageWidth="850" pageHeight="1100" math="0" shadow="0">
      <root>
        <mxCell id="0" />
        <mxCell id="1" parent="0" />
        <mxCell id="CkXpiSHxw9MxIS6JnHbS-26" value="&lt;font style=&quot;font-size: 10px;&quot;&gt;tautulli :8181&lt;/font&gt;" style="swimlane;whiteSpace=wrap;html=1;startSize=20;strokeColor=#2684FF;rounded=1;glass=0;shadow=0;swimlaneLine=1;labelBackgroundColor=none;fillColor=#f2f2f2;fillStyle=solid;" parent="1" vertex="1" collapsed="1">
          <mxGeometry x="-20" y="420" width="100" height="30" as="geometry">
            <mxRectangle x="120" y="400" width="100" height="120" as="alternateBounds" />
          </mxGeometry>
        </mxCell>
        <mxCell id="CkXpiSHxw9MxIS6JnHbS-27" value="&lt;div&gt;&lt;div&gt;username: ryanturner&lt;br&gt;&lt;/div&gt;pass: thomas&lt;/div&gt;" style="text;strokeColor=none;fillColor=default;html=1;whiteSpace=wrap;verticalAlign=middle;overflow=hidden;fontSize=9;align=center;" parent="CkXpiSHxw9MxIS6JnHbS-26" vertex="1">
          <mxGeometry y="20" width="100" height="100" as="geometry" />
        </mxCell>
        <mxCell id="CkXpiSHxw9MxIS6JnHbS-5" value="" style="edgeStyle=orthogonalEdgeStyle;rounded=0;orthogonalLoop=1;jettySize=auto;html=1;" parent="1" source="CkXpiSHxw9MxIS6JnHbS-2" target="CkXpiSHxw9MxIS6JnHbS-4" edge="1">
          <mxGeometry relative="1" as="geometry" />
        </mxCell>
        <mxCell id="CkXpiSHxw9MxIS6JnHbS-8" style="edgeStyle=orthogonalEdgeStyle;rounded=0;orthogonalLoop=1;jettySize=auto;html=1;entryX=0.5;entryY=0;entryDx=0;entryDy=0;" parent="1" source="CkXpiSHxw9MxIS6JnHbS-2" target="CkXpiSHxw9MxIS6JnHbS-7" edge="1">
          <mxGeometry relative="1" as="geometry">
            <Array as="points">
              <mxPoint x="355" y="120" />
              <mxPoint x="85" y="120" />
            </Array>
          </mxGeometry>
        </mxCell>
        <mxCell id="CkXpiSHxw9MxIS6JnHbS-2" value="/&lt;span style=&quot;white-space: pre;&quot;&gt;  [931G]&lt;/span&gt;" style="rounded=0;whiteSpace=wrap;html=1;" parent="1" vertex="1">
          <mxGeometry x="320" y="70" width="70" height="30" as="geometry" />
        </mxCell>
        <mxCell id="CkXpiSHxw9MxIS6JnHbS-11" style="edgeStyle=orthogonalEdgeStyle;rounded=0;orthogonalLoop=1;jettySize=auto;html=1;entryX=0.5;entryY=0;entryDx=0;entryDy=0;" parent="1" source="CkXpiSHxw9MxIS6JnHbS-4" target="CkXpiSHxw9MxIS6JnHbS-10" edge="1">
          <mxGeometry relative="1" as="geometry" />
        </mxCell>
        <mxCell id="CkXpiSHxw9MxIS6JnHbS-12" style="edgeStyle=orthogonalEdgeStyle;rounded=0;orthogonalLoop=1;jettySize=auto;html=1;" parent="1" source="CkXpiSHxw9MxIS6JnHbS-4" target="CkXpiSHxw9MxIS6JnHbS-9" edge="1">
          <mxGeometry relative="1" as="geometry" />
        </mxCell>
        <mxCell id="CkXpiSHxw9MxIS6JnHbS-4" value="&lt;div&gt;/mnt&lt;/div&gt;" style="rounded=1;whiteSpace=wrap;html=1;" parent="1" vertex="1">
          <mxGeometry x="390" y="140" width="90" height="30" as="geometry" />
        </mxCell>
        <mxCell id="CkXpiSHxw9MxIS6JnHbS-14" style="edgeStyle=orthogonalEdgeStyle;rounded=0;orthogonalLoop=1;jettySize=auto;html=1;" parent="1" source="CkXpiSHxw9MxIS6JnHbS-7" target="CkXpiSHxw9MxIS6JnHbS-13" edge="1">
          <mxGeometry relative="1" as="geometry" />
        </mxCell>
        <mxCell id="CkXpiSHxw9MxIS6JnHbS-7" value="&lt;div&gt;/home&lt;/div&gt;" style="rounded=1;whiteSpace=wrap;html=1;" parent="1" vertex="1">
          <mxGeometry x="50" y="140" width="70" height="30" as="geometry" />
        </mxCell>
        <mxCell id="CkXpiSHxw9MxIS6JnHbS-9" value="/hdd1 [1.4T]" style="rounded=0;whiteSpace=wrap;html=1;" parent="1" vertex="1">
          <mxGeometry x="480" y="230" width="90" height="30" as="geometry" />
        </mxCell>
        <mxCell id="CkXpiSHxw9MxIS6JnHbS-32" style="edgeStyle=orthogonalEdgeStyle;rounded=0;orthogonalLoop=1;jettySize=auto;html=1;" parent="1" source="CkXpiSHxw9MxIS6JnHbS-10" target="CkXpiSHxw9MxIS6JnHbS-31" edge="1">
          <mxGeometry relative="1" as="geometry" />
        </mxCell>
        <mxCell id="CkXpiSHxw9MxIS6JnHbS-10" value="/hh2 [3.6T]" style="rounded=0;whiteSpace=wrap;html=1;" parent="1" vertex="1">
          <mxGeometry x="380" y="230" width="80" height="30" as="geometry" />
        </mxCell>
        <mxCell id="CkXpiSHxw9MxIS6JnHbS-16" style="edgeStyle=orthogonalEdgeStyle;rounded=0;orthogonalLoop=1;jettySize=auto;html=1;entryX=0.5;entryY=0;entryDx=0;entryDy=0;" parent="1" source="CkXpiSHxw9MxIS6JnHbS-13" target="CkXpiSHxw9MxIS6JnHbS-15" edge="1">
          <mxGeometry relative="1" as="geometry">
            <Array as="points">
              <mxPoint x="85" y="260" />
              <mxPoint x="-45" y="260" />
            </Array>
          </mxGeometry>
        </mxCell>
        <mxCell id="CkXpiSHxw9MxIS6JnHbS-13" value="/ryanturner" style="rounded=1;whiteSpace=wrap;html=1;strokeColor=#FF3A1C;" parent="1" vertex="1">
          <mxGeometry x="50" y="200" width="70" height="30" as="geometry" />
        </mxCell>
        <mxCell id="CkXpiSHxw9MxIS6JnHbS-28" style="edgeStyle=orthogonalEdgeStyle;rounded=0;orthogonalLoop=1;jettySize=auto;html=1;exitX=0.5;exitY=1;exitDx=0;exitDy=0;entryX=0;entryY=0.5;entryDx=0;entryDy=0;" parent="1" source="CkXpiSHxw9MxIS6JnHbS-15" target="CkXpiSHxw9MxIS6JnHbS-19" edge="1">
          <mxGeometry relative="1" as="geometry" />
        </mxCell>
        <mxCell id="CkXpiSHxw9MxIS6JnHbS-29" style="edgeStyle=orthogonalEdgeStyle;rounded=0;orthogonalLoop=1;jettySize=auto;html=1;entryX=0;entryY=0.5;entryDx=0;entryDy=0;" parent="1" source="CkXpiSHxw9MxIS6JnHbS-15" target="CkXpiSHxw9MxIS6JnHbS-24" edge="1">
          <mxGeometry relative="1" as="geometry" />
        </mxCell>
        <mxCell id="CkXpiSHxw9MxIS6JnHbS-30" style="edgeStyle=orthogonalEdgeStyle;rounded=0;orthogonalLoop=1;jettySize=auto;html=1;entryX=0;entryY=0.5;entryDx=0;entryDy=0;" parent="1" source="CkXpiSHxw9MxIS6JnHbS-15" target="CkXpiSHxw9MxIS6JnHbS-26" edge="1">
          <mxGeometry relative="1" as="geometry" />
        </mxCell>
        <mxCell id="CkXpiSHxw9MxIS6JnHbS-15" value="&lt;div&gt;/docker&lt;/div&gt;" style="rounded=1;whiteSpace=wrap;html=1;" parent="1" vertex="1">
          <mxGeometry x="-80" y="280" width="70" height="30" as="geometry" />
        </mxCell>
        <mxCell id="CkXpiSHxw9MxIS6JnHbS-24" value="&lt;font style=&quot;font-size: 10px;&quot;&gt;dozzle :8888&lt;/font&gt;" style="swimlane;whiteSpace=wrap;html=1;startSize=20;strokeColor=#2684FF;rounded=1;glass=0;shadow=0;swimlaneLine=1;labelBackgroundColor=none;fillColor=#f2f2f2;" parent="1" vertex="1" collapsed="1">
          <mxGeometry x="-20" y="380" width="100" height="30" as="geometry">
            <mxRectangle x="120" y="360" width="100" height="120" as="alternateBounds" />
          </mxGeometry>
        </mxCell>
        <mxCell id="CkXpiSHxw9MxIS6JnHbS-25" value="" style="text;strokeColor=none;fillColor=default;html=1;whiteSpace=wrap;verticalAlign=middle;overflow=hidden;fontSize=9;align=center;" parent="CkXpiSHxw9MxIS6JnHbS-24" vertex="1">
          <mxGeometry y="20" width="100" height="100" as="geometry" />
        </mxCell>
        <mxCell id="CkXpiSHxw9MxIS6JnHbS-19" value="&lt;font style=&quot;font-size: 10px;&quot;&gt;portainer :9443&lt;/font&gt;" style="swimlane;whiteSpace=wrap;html=1;startSize=20;strokeColor=#2684FF;rounded=1;glass=0;shadow=0;swimlaneLine=1;labelBackgroundColor=none;fillColor=#F2F2F2;fillStyle=solid;" parent="1" vertex="1" collapsed="1">
          <mxGeometry x="-20" y="340" width="100" height="30" as="geometry">
            <mxRectangle x="120" y="320" width="100" height="120" as="alternateBounds" />
          </mxGeometry>
        </mxCell>
        <mxCell id="CkXpiSHxw9MxIS6JnHbS-21" value="&lt;div&gt;&lt;div&gt;username: ryanturner&lt;br&gt;&lt;/div&gt;pass: monksters1919&lt;/div&gt;" style="text;strokeColor=none;fillColor=default;html=1;whiteSpace=wrap;verticalAlign=middle;overflow=hidden;fontSize=9;align=center;" parent="CkXpiSHxw9MxIS6JnHbS-19" vertex="1">
          <mxGeometry y="20" width="100" height="100" as="geometry" />
        </mxCell>
        <mxCell id="CkXpiSHxw9MxIS6JnHbS-36" style="edgeStyle=orthogonalEdgeStyle;rounded=0;orthogonalLoop=1;jettySize=auto;html=1;entryX=0;entryY=0.5;entryDx=0;entryDy=0;" parent="1" source="CkXpiSHxw9MxIS6JnHbS-31" target="CkXpiSHxw9MxIS6JnHbS-33" edge="1">
          <mxGeometry relative="1" as="geometry" />
        </mxCell>
        <mxCell id="CkXpiSHxw9MxIS6JnHbS-50" style="edgeStyle=orthogonalEdgeStyle;rounded=0;orthogonalLoop=1;jettySize=auto;html=1;exitX=0.5;exitY=1;exitDx=0;exitDy=0;entryX=0;entryY=0.5;entryDx=0;entryDy=0;" parent="1" source="CkXpiSHxw9MxIS6JnHbS-31" target="CkXpiSHxw9MxIS6JnHbS-35" edge="1">
          <mxGeometry relative="1" as="geometry" />
        </mxCell>
        <mxCell id="CkXpiSHxw9MxIS6JnHbS-31" value="&lt;div&gt;/data&lt;/div&gt;" style="rounded=1;whiteSpace=wrap;html=1;" parent="1" vertex="1">
          <mxGeometry x="320" y="330" width="70" height="30" as="geometry" />
        </mxCell>
        <mxCell id="CkXpiSHxw9MxIS6JnHbS-46" style="edgeStyle=orthogonalEdgeStyle;rounded=0;orthogonalLoop=1;jettySize=auto;html=1;exitX=0.25;exitY=1;exitDx=0;exitDy=0;entryX=0;entryY=0.5;entryDx=0;entryDy=0;" parent="1" source="CkXpiSHxw9MxIS6JnHbS-33" target="CkXpiSHxw9MxIS6JnHbS-39" edge="1">
          <mxGeometry relative="1" as="geometry" />
        </mxCell>
        <mxCell id="CkXpiSHxw9MxIS6JnHbS-47" style="edgeStyle=orthogonalEdgeStyle;rounded=0;orthogonalLoop=1;jettySize=auto;html=1;exitX=0.25;exitY=1;exitDx=0;exitDy=0;entryX=0;entryY=0.5;entryDx=0;entryDy=0;" parent="1" source="CkXpiSHxw9MxIS6JnHbS-33" target="CkXpiSHxw9MxIS6JnHbS-40" edge="1">
          <mxGeometry relative="1" as="geometry" />
        </mxCell>
        <mxCell id="CkXpiSHxw9MxIS6JnHbS-48" style="edgeStyle=orthogonalEdgeStyle;rounded=0;orthogonalLoop=1;jettySize=auto;html=1;exitX=0.25;exitY=1;exitDx=0;exitDy=0;entryX=0;entryY=0.5;entryDx=0;entryDy=0;" parent="1" source="CkXpiSHxw9MxIS6JnHbS-33" target="CkXpiSHxw9MxIS6JnHbS-38" edge="1">
          <mxGeometry relative="1" as="geometry" />
        </mxCell>
        <mxCell id="CkXpiSHxw9MxIS6JnHbS-49" style="edgeStyle=orthogonalEdgeStyle;rounded=0;orthogonalLoop=1;jettySize=auto;html=1;exitX=0.25;exitY=1;exitDx=0;exitDy=0;entryX=0;entryY=0.5;entryDx=0;entryDy=0;" parent="1" source="CkXpiSHxw9MxIS6JnHbS-33" target="CkXpiSHxw9MxIS6JnHbS-37" edge="1">
          <mxGeometry relative="1" as="geometry" />
        </mxCell>
        <mxCell id="CkXpiSHxw9MxIS6JnHbS-56" style="edgeStyle=orthogonalEdgeStyle;rounded=0;orthogonalLoop=1;jettySize=auto;html=1;exitX=0.25;exitY=1;exitDx=0;exitDy=0;entryX=0;entryY=0.5;entryDx=0;entryDy=0;" parent="1" source="CkXpiSHxw9MxIS6JnHbS-33" target="CkXpiSHxw9MxIS6JnHbS-55" edge="1">
          <mxGeometry relative="1" as="geometry" />
        </mxCell>
        <mxCell id="CkXpiSHxw9MxIS6JnHbS-33" value="&lt;div&gt;/torrents&lt;/div&gt;" style="rounded=1;whiteSpace=wrap;html=1;" parent="1" vertex="1">
          <mxGeometry x="380" y="390" width="70" height="30" as="geometry" />
        </mxCell>
        <mxCell id="CkXpiSHxw9MxIS6JnHbS-57" style="edgeStyle=orthogonalEdgeStyle;rounded=0;orthogonalLoop=1;jettySize=auto;html=1;exitX=0.25;exitY=1;exitDx=0;exitDy=0;entryX=0;entryY=0.5;entryDx=0;entryDy=0;" parent="1" source="CkXpiSHxw9MxIS6JnHbS-35" target="CkXpiSHxw9MxIS6JnHbS-53" edge="1">
          <mxGeometry relative="1" as="geometry" />
        </mxCell>
        <mxCell id="CkXpiSHxw9MxIS6JnHbS-58" style="edgeStyle=orthogonalEdgeStyle;rounded=0;orthogonalLoop=1;jettySize=auto;html=1;exitX=0.25;exitY=1;exitDx=0;exitDy=0;entryX=0;entryY=0.5;entryDx=0;entryDy=0;" parent="1" source="CkXpiSHxw9MxIS6JnHbS-35" target="CkXpiSHxw9MxIS6JnHbS-54" edge="1">
          <mxGeometry relative="1" as="geometry" />
        </mxCell>
        <mxCell id="CkXpiSHxw9MxIS6JnHbS-59" style="edgeStyle=orthogonalEdgeStyle;rounded=0;orthogonalLoop=1;jettySize=auto;html=1;exitX=0.25;exitY=1;exitDx=0;exitDy=0;entryX=0;entryY=0.5;entryDx=0;entryDy=0;" parent="1" source="CkXpiSHxw9MxIS6JnHbS-35" target="CkXpiSHxw9MxIS6JnHbS-52" edge="1">
          <mxGeometry relative="1" as="geometry" />
        </mxCell>
        <mxCell id="CkXpiSHxw9MxIS6JnHbS-60" style="edgeStyle=orthogonalEdgeStyle;rounded=0;orthogonalLoop=1;jettySize=auto;html=1;exitX=0.25;exitY=1;exitDx=0;exitDy=0;entryX=0;entryY=0.5;entryDx=0;entryDy=0;" parent="1" source="CkXpiSHxw9MxIS6JnHbS-35" target="CkXpiSHxw9MxIS6JnHbS-51" edge="1">
          <mxGeometry relative="1" as="geometry" />
        </mxCell>
        <mxCell id="CkXpiSHxw9MxIS6JnHbS-35" value="&lt;div&gt;/media&lt;/div&gt;" style="rounded=1;whiteSpace=wrap;html=1;" parent="1" vertex="1">
          <mxGeometry x="379.5" y="670" width="70" height="30" as="geometry" />
        </mxCell>
        <mxCell id="CkXpiSHxw9MxIS6JnHbS-37" value="&lt;div&gt;/audiobooks&lt;/div&gt;" style="rounded=1;whiteSpace=wrap;html=1;" parent="1" vertex="1">
          <mxGeometry x="421" y="560" width="70" height="30" as="geometry" />
        </mxCell>
        <mxCell id="CkXpiSHxw9MxIS6JnHbS-38" value="/tv" style="rounded=1;whiteSpace=wrap;html=1;" parent="1" vertex="1">
          <mxGeometry x="421" y="520" width="70" height="30" as="geometry" />
        </mxCell>
        <mxCell id="CkXpiSHxw9MxIS6JnHbS-39" value="&lt;div&gt;/movies&lt;/div&gt;" style="rounded=1;whiteSpace=wrap;html=1;" parent="1" vertex="1">
          <mxGeometry x="421" y="440" width="70" height="30" as="geometry" />
        </mxCell>
        <mxCell id="CkXpiSHxw9MxIS6JnHbS-40" value="&lt;div&gt;/books&lt;/div&gt;" style="rounded=1;whiteSpace=wrap;html=1;" parent="1" vertex="1">
          <mxGeometry x="421" y="480" width="70" height="30" as="geometry" />
        </mxCell>
        <mxCell id="CkXpiSHxw9MxIS6JnHbS-51" value="&lt;div&gt;/audiobooks&lt;/div&gt;" style="rounded=1;whiteSpace=wrap;html=1;" parent="1" vertex="1">
          <mxGeometry x="420.5" y="840" width="70" height="30" as="geometry" />
        </mxCell>
        <mxCell id="CkXpiSHxw9MxIS6JnHbS-52" value="/tv" style="rounded=1;whiteSpace=wrap;html=1;" parent="1" vertex="1">
          <mxGeometry x="420.5" y="800" width="70" height="30" as="geometry" />
        </mxCell>
        <mxCell id="CkXpiSHxw9MxIS6JnHbS-53" value="&lt;div&gt;/movies&lt;/div&gt;" style="rounded=1;whiteSpace=wrap;html=1;" parent="1" vertex="1">
          <mxGeometry x="420.5" y="720" width="70" height="30" as="geometry" />
        </mxCell>
        <mxCell id="CkXpiSHxw9MxIS6JnHbS-54" value="&lt;div&gt;/books&lt;/div&gt;" style="rounded=1;whiteSpace=wrap;html=1;" parent="1" vertex="1">
          <mxGeometry x="420.5" y="760" width="70" height="30" as="geometry" />
        </mxCell>
        <mxCell id="CkXpiSHxw9MxIS6JnHbS-55" value="/failed-torrents" style="rounded=1;whiteSpace=wrap;html=1;" parent="1" vertex="1">
          <mxGeometry x="421" y="600" width="70" height="30" as="geometry" />
        </mxCell>
      </root>
    </mxGraphModel>
  </diagram>
</mxfile>
